<svg id="visual" viewBox="0 0 900 600" width="900" height="600" xmlns="http://www.w3.org/2000/svg" xmlns:xlink="http://www.w3.org/1999/xlink" version="1.1"><rect x="0" y="0" width="900" height="600" fill="#000000"></rect><defs><linearGradient id="grad1_0" x1="33.3%" y1="100%" x2="100%" y2="0%"><stop offset="20%" stop-color="#000000" stop-opacity="1"></stop><stop offset="80%" stop-color="#000000" stop-opacity="1"></stop></linearGradient></defs><defs><linearGradient id="grad2_0" x1="0%" y1="100%" x2="66.7%" y2="0%"><stop offset="20%" stop-color="#000000" stop-opacity="1"></stop><stop offset="80%" stop-color="#000000" stop-opacity="1"></stop></linearGradient></defs><g transform="translate(900, 600)"><path d="M-189.3 0C-185.2 -34.6 -181.1 -69.2 -163.9 -94.6C-146.8 -120.1 -116.5 -136.4 -87 -150.7C-57.5 -164.9 -28.7 -177.1 0 -189.3L0 0Z" fill="#25ff92"></path></g><g transform="translate(0, 0)"><path d="M189.3 0C185.6 35.3 181.9 70.6 163.9 94.6C146 118.7 113.7 131.6 84 145.5C54.3 159.4 27.1 174.3 0 189.3L0 0Z" fill="#25ff92"></path></g></svg>